<svg width="111" height="20" viewBox="0 0 111 20" fill="none" xmlns="http://www.w3.org/2000/svg">
<path d="M0.88 16V2H7.44C9.12 2 10.4 2.33333 11.28 3C12.16 3.65333 12.6 4.53333 12.6 5.64C12.6 6.38667 12.4267 7.02667 12.08 7.56C11.7333 8.08 11.2667 8.48667 10.68 8.78C10.1067 9.06 9.48 9.2 8.8 9.2L9.16 8.48C9.94667 8.48 10.6533 8.62667 11.28 8.92C11.9067 9.2 12.4 9.61333 12.76 10.16C13.1333 10.7067 13.32 11.3867 13.32 12.2C13.32 13.4 12.86 14.3333 11.94 15C11.02 15.6667 9.65333 16 7.84 16H0.88ZM3.48 13.96H7.68C8.65333 13.96 9.4 13.8 9.92 13.48C10.44 13.16 10.7 12.6467 10.7 11.94C10.7 11.2467 10.44 10.74 9.92 10.42C9.4 10.0867 8.65333 9.92 7.68 9.92H3.28V7.9H7.16C8.06667 7.9 8.76 7.74 9.24 7.42C9.73333 7.1 9.98 6.62 9.98 5.98C9.98 5.32667 9.73333 4.84 9.24 4.52C8.76 4.2 8.06667 4.04 7.16 4.04H3.48V13.96ZM15.8548 16V5.32H18.3548V16H15.8548ZM17.1148 3.56C16.6482 3.56 16.2615 3.41333 15.9548 3.12C15.6615 2.82667 15.5148 2.47333 15.5148 2.06C15.5148 1.63333 15.6615 1.28 15.9548 0.999999C16.2615 0.706666 16.6482 0.56 17.1148 0.56C17.5815 0.56 17.9615 0.699999 18.2548 0.979999C18.5615 1.24667 18.7148 1.58667 18.7148 2C18.7148 2.44 18.5682 2.81333 18.2748 3.12C17.9815 3.41333 17.5948 3.56 17.1148 3.56ZM28.2161 16V13.84L28.0761 13.38V9.6C28.0761 8.86667 27.8561 8.3 27.4161 7.9C26.9761 7.48667 26.3094 7.28 25.4161 7.28C24.8161 7.28 24.2228 7.37333 23.6361 7.56C23.0628 7.74667 22.5761 8.00667 22.1761 8.34L21.1961 6.52C21.7694 6.08 22.4494 5.75333 23.2361 5.54C24.0361 5.31333 24.8628 5.2 25.7161 5.2C27.2628 5.2 28.4561 5.57333 29.2961 6.32C30.1494 7.05333 30.5761 8.19333 30.5761 9.74V16H28.2161ZM24.8561 16.14C24.0561 16.14 23.3561 16.0067 22.7561 15.74C22.1561 15.46 21.6894 15.08 21.3561 14.6C21.0361 14.1067 20.8761 13.5533 20.8761 12.94C20.8761 12.34 21.0161 11.8 21.2961 11.32C21.5894 10.84 22.0628 10.46 22.7161 10.18C23.3694 9.9 24.2361 9.76 25.3161 9.76H28.4161V11.42H25.4961C24.6428 11.42 24.0694 11.56 23.7761 11.84C23.4828 12.1067 23.3361 12.44 23.3361 12.84C23.3361 13.2933 23.5161 13.6533 23.8761 13.92C24.2361 14.1867 24.7361 14.32 25.3761 14.32C25.9894 14.32 26.5361 14.18 27.0161 13.9C27.5094 13.62 27.8628 13.2067 28.0761 12.66L28.4961 14.16C28.2561 14.7867 27.8228 15.2733 27.1961 15.62C26.5828 15.9667 25.8028 16.14 24.8561 16.14ZM33.7845 16V5.32H36.1645V8.26L35.8845 7.4C36.2045 6.68 36.7045 6.13333 37.3845 5.76C38.0779 5.38667 38.9379 5.2 39.9645 5.2V7.58C39.8579 7.55333 39.7579 7.54 39.6645 7.54C39.5712 7.52667 39.4779 7.52 39.3845 7.52C38.4379 7.52 37.6845 7.8 37.1245 8.36C36.5645 8.90667 36.2845 9.72667 36.2845 10.82V16H33.7845ZM42.0853 16V5.32H44.4653V8.26L44.1853 7.4C44.5053 6.68 45.0053 6.13333 45.6853 5.76C46.3786 5.38667 47.2386 5.2 48.2653 5.2V7.58C48.1586 7.55333 48.0586 7.54 47.9653 7.54C47.872 7.52667 47.7786 7.52 47.6853 7.52C46.7386 7.52 45.9853 7.8 45.4253 8.36C44.8653 8.90667 44.5853 9.72667 44.5853 10.82V16H42.0853ZM50.3861 16V5.32H52.8861V16H50.3861ZM51.6461 3.56C51.1794 3.56 50.7928 3.41333 50.4861 3.12C50.1928 2.82667 50.0461 2.47333 50.0461 2.06C50.0461 1.63333 50.1928 1.28 50.4861 0.999999C50.7928 0.706666 51.1794 0.56 51.6461 0.56C52.1128 0.56 52.4928 0.699999 52.7861 0.979999C53.0928 1.24667 53.2461 1.58667 53.2461 2C53.2461 2.44 53.0994 2.81333 52.8061 3.12C52.5128 3.41333 52.1261 3.56 51.6461 3.56ZM60.1873 16.14C59.014 16.14 58.1073 15.84 57.4673 15.24C56.8273 14.6267 56.5073 13.7267 56.5073 12.54V2.96H59.0073V12.48C59.0073 12.9867 59.134 13.38 59.3873 13.66C59.654 13.94 60.0207 14.08 60.4873 14.08C61.0473 14.08 61.514 13.9333 61.8873 13.64L62.5873 15.42C62.294 15.66 61.934 15.84 61.5073 15.96C61.0807 16.08 60.6407 16.14 60.1873 16.14ZM54.7473 7.4V5.4H61.8673V7.4H54.7473ZM63.7639 16V14.42L70.3439 6.46L70.8039 7.32H63.8839V5.32H72.8039V6.9L66.2239 14.86L65.7239 14H72.9839V16H63.7639ZM74.648 19.02L75.808 14.6L76.148 16.08C75.6813 16.08 75.288 15.94 74.968 15.66C74.6613 15.3667 74.508 14.9733 74.508 14.48C74.508 13.9733 74.6613 13.5733 74.968 13.28C75.288 12.9733 75.6746 12.82 76.128 12.82C76.5946 12.82 76.9813 12.9733 77.288 13.28C77.5946 13.5867 77.748 13.9867 77.748 14.48C77.748 14.6133 77.7346 14.76 77.708 14.92C77.6813 15.0667 77.6346 15.24 77.568 15.44C77.5146 15.64 77.4213 15.8933 77.288 16.2L76.268 19.02H74.648ZM88.3381 8.44H95.3181V10.64H88.3381V8.44ZM88.5581 16H85.9581V2H96.1781V4.18H88.5581V16ZM98.6925 16V2H104.453C105.693 2 106.753 2.2 107.633 2.6C108.526 3 109.213 3.57333 109.693 4.32C110.173 5.06667 110.413 5.95333 110.413 6.98C110.413 8.00667 110.173 8.89333 109.693 9.64C109.213 10.3733 108.526 10.94 107.633 11.34C106.753 11.7267 105.693 11.92 104.453 11.92H100.133L101.293 10.74V16H98.6925ZM107.853 16L104.313 10.92H107.092L110.653 16H107.853ZM101.293 11.02L100.133 9.78H104.333C105.479 9.78 106.339 9.53333 106.912 9.04C107.499 8.54667 107.793 7.86 107.793 6.98C107.793 6.08667 107.499 5.4 106.912 4.92C106.339 4.44 105.479 4.2 104.333 4.2H100.133L101.293 2.92V11.02Z" fill="white"/>
</svg>
